<svg width="80" height="80" viewBox="0 0 80 80" xmlns="http://www.w3.org/2000/svg"><g fill="none" fill-rule="evenodd"><path fill="#CCC" d="M10 0h45v15h15v65H10z"/><path fill="#FFF" d="M11 1h44v14h14v64H11z"/><path fill="#989898" fill-rule="nonzero" d="M55 0l15 15H55z"/><path d="M58 46.571l-1.952 1.981-6.37 6.461-1.952-1.98 6.693-6.462-6.693-6.46 1.952-1.981 6.37 6.46L58 46.572zm-34.048 1.981l6.37 6.461 1.952-1.98-6.7-6.462 6.714-6.46-1.966-1.981-6.37 6.46L22 46.572l1.952 1.981zM44.57 34.73L41.897 34l-6.43 24.276 2.674.725 6.428-24.27z" fill="gray" fill-rule="nonzero"/></g></svg>