<svg width="80" height="80" viewBox="0 0 80 80" xmlns="http://www.w3.org/2000/svg"><g fill="none" fill-rule="evenodd"><path fill="#CCC" d="M10 0h45v15h15v65H10z"/><path fill="#FFF" d="M11 1h44v14h14v64H11z"/><path fill="#989898" fill-rule="nonzero" d="M55 0l15 15H55z"/><path d="M29 72.672V64h4.846v.92H30.23v2.783h3.03v.908h-3.03v3.141h3.868v.92H29zm6.979 0l2.876-4.354L36.12 64h1.453l2.086 3.27L41.85 64h1.16l-2.772 4.19 2.842 4.482h-1.453l-2.203-3.44-2.28 3.44H35.98zm10.037 0V64h4.845v.92h-3.615v2.783h3.03v.908h-3.03v3.141h3.867v.92h-5.097z" fill="#666" fill-rule="nonzero"/><path d="M21 25h38v29H21V25zm36 27V32H23v20h34zm-8-22v-2h-2v2h2zm4 0v-2h-2v2h2zm4 0v-2h-2v2h2z" fill="#7F7F7F"/></g></svg>