<svg width="80" height="80" viewBox="0 0 80 80" xmlns="http://www.w3.org/2000/svg"><g fill="none" fill-rule="evenodd"><path fill="#CCC" d="M10 0h45v15h15v65H10z"/><path fill="#FFF" d="M11 1h44v14h14v64H11z"/><path fill="#FFDD0D" fill-rule="nonzero" d="M55 0l15 15H55z"/><path d="M27 72.672V64h2.625c.832 0 1.47.184 1.913.55.443.368.665.901.665 1.6 0 1.157-.584 1.977-1.752 2.461l2.895 4.06h-1.512l-2.467-3.667H28.22v3.668H27zm1.219-4.588h.398c1.547 0 2.32-.607 2.32-1.822 0-.895-.648-1.342-1.945-1.342h-.773v3.164zm12.263 1.271l-1.476-3.738-1.483 3.738h2.96zm1.301 3.317l-.943-2.402h-3.674l-.955 2.402h-1.143L38.508 64h1.219l3.386 8.672h-1.33zm4.084 0V64h2.625c.832 0 1.47.184 1.913.55.444.368.665.901.665 1.6 0 1.157-.584 1.977-1.752 2.461l2.895 4.06H50.7l-2.467-3.667h-1.148v3.668h-1.219zm1.219-4.588h.398c1.547 0 2.32-.607 2.32-1.822 0-.895-.648-1.342-1.945-1.342h-.773v3.164zM17 35h12v16H17V35zm2 2v4h8v-4h-8zm3-18h7v2h-7v-2zm0 6h7v2h-7v-2zm0 6h7v2h-7v-2zm-5-15h7v2h-7v-2zm0 6h7v2h-7v-2zm0 6h7v2h-7v-2zm5-15h7v2h-7v-2zm-5-3h7v2h-7v-2zm5-3h7v2h-7V7zm-5-3h7v2h-7V4z" fill="#666" fill-rule="nonzero"/></g></svg>